<svg width="44" height="44" viewBox="0 0 44 44" fill="none" xmlns="http://www.w3.org/2000/svg">
<circle cx="21.6646" cy="21.6645" r="21.6645" fill="white"/>
<g clip-path="url(#clip0)">
<path d="M15.4452 21.9561L24.4201 29.1659C24.7141 29.4019 25.1902 29.4015 25.4838 29.1646C25.7771 28.9278 25.7764 28.544 25.4823 28.3078L17.0416 21.5271L25.4826 14.7465C25.7766 14.5102 25.7774 14.1268 25.4841 13.8899C25.3369 13.7711 25.1441 13.7117 24.9514 13.7117C24.7591 13.7117 24.567 13.7707 24.4201 13.8886L15.4452 21.0982C15.3036 21.2117 15.2241 21.3662 15.2241 21.5271C15.2241 21.6881 15.3038 21.8424 15.4452 21.9561Z" fill="black"/>
</g>
<defs>
<clipPath id="clip0">
<rect width="19.7449" height="15.9056" fill="white" transform="translate(30.1658 29.6173) rotate(180)"/>
</clipPath>
</defs>
</svg>
