<svg width="23" height="23" viewBox="0 0 23 23" fill="none" xmlns="http://www.w3.org/2000/svg">
<path d="M21.7222 15.2778C20.1314 15.2778 18.5917 15.0333 17.1606 14.5811C16.7197 14.4467 16.215 14.5445 15.8637 14.8806L13.0526 17.5756C9.43006 15.8156 6.47198 12.9861 4.63198 9.52726L7.44308 6.82613C7.79448 6.49 7.89667 6.00726 7.75615 5.58559C7.28339 4.21672 7.02782 2.74393 7.02782 1.22226C7.02776 0.54387 6.45917 0 5.75 0H1.27776C0.575 0 0 0.54387 0 1.2222C0 12.6989 9.72391 22 21.7222 22C22.4314 22 23 21.4561 23 20.7778V16.5C23 15.8217 22.4314 15.2778 21.7222 15.2778Z" fill="black"/>
</svg>
