<svg width="44" height="44" viewBox="0 0 44 44" fill="none" xmlns="http://www.w3.org/2000/svg">
<circle r="21.6645" transform="matrix(-1 0 0 1 21.6646 21.6645)" fill="white"/>
<g clip-path="url(#clip0)">
<path d="M27.8838 21.9561L18.9089 29.1659C18.6149 29.4019 18.1388 29.4015 17.8453 29.1646C17.5519 28.9278 17.5527 28.544 17.8468 28.3078L26.2874 21.5271L17.8465 14.7465C17.5524 14.5102 17.5517 14.1268 17.845 13.8899C17.9921 13.7711 18.1849 13.7117 18.3777 13.7117C18.57 13.7117 18.762 13.7707 18.9089 13.8886L27.8838 21.0982C28.0254 21.2117 28.1049 21.3662 28.1049 21.5271C28.1049 21.6881 28.0252 21.8424 27.8838 21.9561Z" fill="black"/>
</g>
<defs>
<clipPath id="clip0">
<rect width="19.7449" height="15.9056" fill="white" transform="matrix(1 0 0 -1 13.1632 29.6173)"/>
</clipPath>
</defs>
</svg>
