<svg width="512" height="141" viewBox="0 0 512 141" fill="none" xmlns="http://www.w3.org/2000/svg">
<g filter="url(#filter0_d)">
<rect x="24" y="17" width="456" height="85" rx="42.5" fill="url(#paint0_linear)"/>
</g>
<path d="M83.2 48L74.5 64.23C73.58 65.97 72.45 67.29 71.11 68.19C69.79 69.09 68.34 69.54 66.76 69.54C65.6 69.54 64.36 69.28 63.04 68.76L64.45 64.38C65.27 64.62 65.97 64.74 66.55 64.74C67.13 64.74 67.64 64.61 68.08 64.35C68.54 64.09 68.96 63.68 69.34 63.12L61.18 48H67.45L72.34 58.14L77.41 48H83.2ZM96.0149 60.6C96.9749 60.9 97.7149 61.36 98.2349 61.98C98.7749 62.6 99.0449 63.34 99.0449 64.2C99.0449 65.22 98.6949 66.12 97.9949 66.9C97.2949 67.66 96.3349 68.25 95.1149 68.67C93.8949 69.09 92.5149 69.3 90.9749 69.3C89.7149 69.3 88.4749 69.17 87.2549 68.91C86.0349 68.65 84.9049 68.26 83.8649 67.74L85.1249 64.47C86.8249 65.29 88.7049 65.7 90.7649 65.7C91.8649 65.7 92.7249 65.54 93.3449 65.22C93.9849 64.88 94.3049 64.41 94.3049 63.81C94.3049 63.29 94.0849 62.9 93.6449 62.64C93.2049 62.36 92.5649 62.22 91.7249 62.22H88.4249V59.31H91.3049C92.1249 59.31 92.7549 59.18 93.1949 58.92C93.6349 58.66 93.8549 58.28 93.8549 57.78C93.8549 57.26 93.5749 56.86 93.0149 56.58C92.4749 56.3 91.6949 56.16 90.6749 56.16C89.1149 56.16 87.4149 56.53 85.5749 57.27L84.4349 54.03C86.6749 53.05 88.8549 52.56 90.9749 52.56C92.4349 52.56 93.7349 52.74 94.8749 53.1C96.0349 53.46 96.9449 53.99 97.6049 54.69C98.2649 55.37 98.5949 56.17 98.5949 57.09C98.5949 57.85 98.3649 58.54 97.9049 59.16C97.4449 59.76 96.8149 60.24 96.0149 60.6ZM102.449 52.86H107.099V59.16H114.119V52.86H118.799V69H114.119V62.97H107.099V69H102.449V52.86ZM129.549 52.62C132.049 52.62 133.969 53.22 135.309 54.42C136.649 55.6 137.319 57.39 137.319 59.79V69H132.939V66.99C132.059 68.49 130.419 69.24 128.019 69.24C126.779 69.24 125.699 69.03 124.779 68.61C123.879 68.19 123.189 67.61 122.709 66.87C122.229 66.13 121.989 65.29 121.989 64.35C121.989 62.85 122.549 61.67 123.669 60.81C124.809 59.95 126.559 59.52 128.919 59.52H132.639C132.639 58.5 132.329 57.72 131.709 57.18C131.089 56.62 130.159 56.34 128.919 56.34C128.059 56.34 127.209 56.48 126.369 56.76C125.549 57.02 124.849 57.38 124.269 57.84L122.589 54.57C123.469 53.95 124.519 53.47 125.739 53.13C126.979 52.79 128.249 52.62 129.549 52.62ZM129.189 66.09C129.989 66.09 130.699 65.91 131.319 65.55C131.939 65.17 132.379 64.62 132.639 63.9V62.25H129.429C127.509 62.25 126.549 62.88 126.549 64.14C126.549 64.74 126.779 65.22 127.239 65.58C127.719 65.92 128.369 66.09 129.189 66.09ZM154.945 56.7H149.485V69H144.835V56.7H139.375V52.86H154.945V56.7ZM166.169 58.02C168.269 58.04 169.879 58.52 170.999 59.46C172.119 60.38 172.679 61.69 172.679 63.39C172.679 65.17 172.049 66.56 170.789 67.56C169.549 68.54 167.799 69.03 165.539 69.03L157.439 69V52.86H162.089V58.02H166.169ZM165.119 65.7C166.019 65.72 166.709 65.53 167.189 65.13C167.669 64.73 167.909 64.13 167.909 63.33C167.909 62.55 167.669 61.98 167.189 61.62C166.729 61.26 166.039 61.07 165.119 61.05L162.089 61.02V65.7H165.119ZM191.78 69.24C190.06 69.24 188.51 68.89 187.13 68.19C185.77 67.47 184.7 66.48 183.92 65.22C183.16 63.96 182.78 62.53 182.78 60.93C182.78 59.33 183.16 57.9 183.92 56.64C184.7 55.38 185.77 54.4 187.13 53.7C188.51 52.98 190.06 52.62 191.78 52.62C193.48 52.62 194.96 52.98 196.22 53.7C197.5 54.4 198.43 55.41 199.01 56.73L195.38 58.68C194.54 57.2 193.33 56.46 191.75 56.46C190.53 56.46 189.52 56.86 188.72 57.66C187.92 58.46 187.52 59.55 187.52 60.93C187.52 62.31 187.92 63.4 188.72 64.2C189.52 65 190.53 65.4 191.75 65.4C193.35 65.4 194.56 64.66 195.38 63.18L199.01 65.16C198.43 66.44 197.5 67.44 196.22 68.16C194.96 68.88 193.48 69.24 191.78 69.24ZM215.355 56.7H209.895V69H205.245V56.7H199.785V52.86H215.355V56.7ZM224.12 52.62C226.62 52.62 228.54 53.22 229.88 54.42C231.22 55.6 231.89 57.39 231.89 59.79V69H227.51V66.99C226.63 68.49 224.99 69.24 222.59 69.24C221.35 69.24 220.27 69.03 219.35 68.61C218.45 68.19 217.76 67.61 217.28 66.87C216.8 66.13 216.56 65.29 216.56 64.35C216.56 62.85 217.12 61.67 218.24 60.81C219.38 59.95 221.13 59.52 223.49 59.52H227.21C227.21 58.5 226.9 57.72 226.28 57.18C225.66 56.62 224.73 56.34 223.49 56.34C222.63 56.34 221.78 56.48 220.94 56.76C220.12 57.02 219.42 57.38 218.84 57.84L217.16 54.57C218.04 53.95 219.09 53.47 220.31 53.13C221.55 52.79 222.82 52.62 224.12 52.62ZM223.76 66.09C224.56 66.09 225.27 65.91 225.89 65.55C226.51 65.17 226.95 64.62 227.21 63.9V62.25H224C222.08 62.25 221.12 62.88 221.12 64.14C221.12 64.74 221.35 65.22 221.81 65.58C222.29 65.92 222.94 66.09 223.76 66.09ZM249.515 56.7H244.055V69H239.405V56.7H233.945V52.86H249.515V56.7ZM268.326 52.86L261.036 69.99C260.296 71.85 259.376 73.16 258.276 73.92C257.196 74.68 255.886 75.06 254.346 75.06C253.506 75.06 252.676 74.93 251.856 74.67C251.036 74.41 250.366 74.05 249.846 73.59L251.556 70.26C251.916 70.58 252.326 70.83 252.786 71.01C253.266 71.19 253.736 71.28 254.196 71.28C254.836 71.28 255.356 71.12 255.756 70.8C256.156 70.5 256.516 69.99 256.836 69.27L256.896 69.12L249.906 52.86H254.736L259.266 63.81L263.826 52.86H268.326ZM277.825 69.24C276.105 69.24 274.555 68.89 273.175 68.19C271.815 67.47 270.745 66.48 269.965 65.22C269.205 63.96 268.825 62.53 268.825 60.93C268.825 59.33 269.205 57.9 269.965 56.64C270.745 55.38 271.815 54.4 273.175 53.7C274.555 52.98 276.105 52.62 277.825 52.62C279.525 52.62 281.005 52.98 282.265 53.7C283.545 54.4 284.475 55.41 285.055 56.73L281.425 58.68C280.585 57.2 279.375 56.46 277.795 56.46C276.575 56.46 275.565 56.86 274.765 57.66C273.965 58.46 273.565 59.55 273.565 60.93C273.565 62.31 273.965 63.4 274.765 64.2C275.565 65 276.575 65.4 277.795 65.4C279.395 65.4 280.605 64.66 281.425 63.18L285.055 65.16C284.475 66.44 283.545 67.44 282.265 68.16C281.005 68.88 279.525 69.24 277.825 69.24ZM305.905 52.62C307.405 52.62 308.765 52.97 309.985 53.67C311.225 54.35 312.195 55.32 312.895 56.58C313.595 57.82 313.945 59.27 313.945 60.93C313.945 62.59 313.595 64.05 312.895 65.31C312.195 66.55 311.225 67.52 309.985 68.22C308.765 68.9 307.405 69.24 305.905 69.24C303.845 69.24 302.225 68.59 301.045 67.29V74.82H296.365V52.86H300.835V54.72C301.995 53.32 303.685 52.62 305.905 52.62ZM305.095 65.4C306.295 65.4 307.275 65 308.035 64.2C308.815 63.38 309.205 62.29 309.205 60.93C309.205 59.57 308.815 58.49 308.035 57.69C307.275 56.87 306.295 56.46 305.095 56.46C303.895 56.46 302.905 56.87 302.125 57.69C301.365 58.49 300.985 59.57 300.985 60.93C300.985 62.29 301.365 63.38 302.125 64.2C302.905 65 303.895 65.4 305.095 65.4ZM332.915 60.99C332.915 61.05 332.885 61.47 332.825 62.25H320.615C320.835 63.25 321.355 64.04 322.175 64.62C322.995 65.2 324.015 65.49 325.235 65.49C326.075 65.49 326.815 65.37 327.455 65.13C328.115 64.87 328.725 64.47 329.285 63.93L331.775 66.63C330.255 68.37 328.035 69.24 325.115 69.24C323.295 69.24 321.685 68.89 320.285 68.19C318.885 67.47 317.805 66.48 317.045 65.22C316.285 63.96 315.905 62.53 315.905 60.93C315.905 59.35 316.275 57.93 317.015 56.67C317.775 55.39 318.805 54.4 320.105 53.7C321.425 52.98 322.895 52.62 324.515 52.62C326.095 52.62 327.525 52.96 328.805 53.64C330.085 54.32 331.085 55.3 331.805 56.58C332.545 57.84 332.915 59.31 332.915 60.99ZM324.545 56.16C323.485 56.16 322.595 56.46 321.875 57.06C321.155 57.66 320.715 58.48 320.555 59.52H328.505C328.345 58.5 327.905 57.69 327.185 57.09C326.465 56.47 325.585 56.16 324.545 56.16ZM352.252 69V59.34L347.422 67.44H345.442L340.732 59.31V69H336.502V52.86H341.392L346.552 62.19L352.042 52.86H356.422L356.482 69H352.252ZM368.525 69.24C366.825 69.24 365.295 68.89 363.935 68.19C362.595 67.47 361.545 66.48 360.785 65.22C360.025 63.96 359.645 62.53 359.645 60.93C359.645 59.33 360.025 57.9 360.785 56.64C361.545 55.38 362.595 54.4 363.935 53.7C365.295 52.98 366.825 52.62 368.525 52.62C370.225 52.62 371.745 52.98 373.085 53.7C374.425 54.4 375.475 55.38 376.235 56.64C376.995 57.9 377.375 59.33 377.375 60.93C377.375 62.53 376.995 63.96 376.235 65.22C375.475 66.48 374.425 67.47 373.085 68.19C371.745 68.89 370.225 69.24 368.525 69.24ZM368.525 65.4C369.725 65.4 370.705 65 371.465 64.2C372.245 63.38 372.635 62.29 372.635 60.93C372.635 59.57 372.245 58.49 371.465 57.69C370.705 56.87 369.725 56.46 368.525 56.46C367.325 56.46 366.335 56.87 365.555 57.69C364.775 58.49 364.385 59.57 364.385 60.93C364.385 62.29 364.775 63.38 365.555 64.2C366.335 65 367.325 65.4 368.525 65.4ZM380.594 52.86H385.244V59.16H392.264V52.86H396.944V69H392.264V62.97H385.244V69H380.594V52.86ZM414.984 56.7H409.524V69H404.874V56.7H399.414V52.86H414.984V56.7ZM423.749 52.62C426.249 52.62 428.169 53.22 429.509 54.42C430.849 55.6 431.519 57.39 431.519 59.79V69H427.139V66.99C426.259 68.49 424.619 69.24 422.219 69.24C420.979 69.24 419.899 69.03 418.979 68.61C418.079 68.19 417.389 67.61 416.909 66.87C416.429 66.13 416.189 65.29 416.189 64.35C416.189 62.85 416.749 61.67 417.869 60.81C419.009 59.95 420.759 59.52 423.119 59.52H426.839C426.839 58.5 426.529 57.72 425.909 57.18C425.289 56.62 424.359 56.34 423.119 56.34C422.259 56.34 421.409 56.48 420.569 56.76C419.749 57.02 419.049 57.38 418.469 57.84L416.789 54.57C417.669 53.95 418.719 53.47 419.939 53.13C421.179 52.79 422.449 52.62 423.749 52.62ZM423.389 66.09C424.189 66.09 424.899 65.91 425.519 65.55C426.139 65.17 426.579 64.62 426.839 63.9V62.25H423.629C421.709 62.25 420.749 62.88 420.749 64.14C420.749 64.74 420.979 65.22 421.439 65.58C421.919 65.92 422.569 66.09 423.389 66.09Z" fill="white"/>
<defs>
<filter id="filter0_d" x="0" y="0" width="512" height="141" filterUnits="userSpaceOnUse" color-interpolation-filters="sRGB">
<feFlood flood-opacity="0" result="BackgroundImageFix"/>
<feColorMatrix in="SourceAlpha" type="matrix" values="0 0 0 0 0 0 0 0 0 0 0 0 0 0 0 0 0 0 127 0"/>
<feOffset dx="4" dy="11"/>
<feGaussianBlur stdDeviation="14"/>
<feColorMatrix type="matrix" values="0 0 0 0 0.905882 0 0 0 0 0.301961 0 0 0 0 0.423529 0 0 0 0.86 0"/>
<feBlend mode="normal" in2="BackgroundImageFix" result="effect1_dropShadow"/>
<feBlend mode="normal" in="SourceGraphic" in2="effect1_dropShadow" result="shape"/>
</filter>
<linearGradient id="paint0_linear" x1="59.5" y1="36.5" x2="321.5" y2="154" gradientUnits="userSpaceOnUse">
<stop stop-color="#F02727"/>
<stop offset="1" stop-color="#E74D7B" stop-opacity="0.87"/>
</linearGradient>
</defs>
</svg>
