<svg width="10" height="12" viewBox="0 0 10 12" fill="none" xmlns="http://www.w3.org/2000/svg">
<path d="M9.14464 5.28923L2.02444 0.183301C1.85976 0.0651115 1.63992 0 1.40552 0C1.17111 0 0.951277 0.0651115 0.786595 0.183301L0.262242 0.559231C-0.0789585 0.804192 -0.0789585 1.20232 0.262242 1.44691L6.24125 5.73457L0.255608 10.027C0.0909261 10.1452 0 10.3027 0 10.4707C0 10.6389 0.0909261 10.7965 0.255608 10.9148L0.779961 11.2906C0.944772 11.4088 1.16448 11.4739 1.39888 11.4739C1.63329 11.4739 1.85312 11.4088 2.0178 11.2906L9.14464 6.17999C9.30971 6.06143 9.40038 5.90313 9.39985 5.73485C9.40038 5.56591 9.30971 5.4077 9.14464 5.28923Z" fill="black"/>
</svg>
