<svg width="129" height="102" viewBox="0 0 129 102" fill="none" xmlns="http://www.w3.org/2000/svg">
<rect width="129" height="102" rx="24" fill="#E9FAC5"/>
<g clip-path="url(#clip0)">
<path d="M101.713 67.2378C97.5952 63.1295 91.3656 61.8643 85.9673 63.9636L83.6039 61.6054C83.7914 61.4642 83.972 61.3094 84.1428 61.139L90.0397 55.2549C91.0063 54.2906 91.5385 53.0044 91.5385 51.6332C91.5385 50.262 91.0063 48.9758 90.0397 48.0114H90.0398C88.9682 46.9423 87.5368 46.4465 86.131 46.5228C86.1661 46.2654 86.1851 46.004 86.1851 45.7396C86.1851 44.2193 85.5944 42.7938 84.5216 41.7257C83.4808 40.6874 82.1337 40.1369 80.768 40.0737C81.4193 38.0971 80.9616 35.8239 79.4014 34.2631C78.1258 32.9903 76.3901 32.4518 74.7236 32.6444C74.7479 32.4291 74.7618 32.2114 74.7618 31.9914C74.7618 30.4711 74.1722 29.0456 73.1017 27.9774C70.8856 25.7662 67.2798 25.7664 65.0637 27.9774L61.2947 31.7381L61.003 31.4471C59.5924 30.0394 57.2946 30.0414 55.8811 31.4518L54.6303 32.6998L50.9852 29.0595C53.0884 23.6709 51.8194 17.4554 47.7014 13.3466C44.2729 9.92569 39.362 8.42358 34.5673 9.32885C33.881 9.45796 31.7931 9.85088 31.3646 11.4485C30.9456 13.011 32.4355 14.2917 33.1518 14.9073C33.2243 14.9696 39.0367 20.7582 39.0367 20.7582C40.5459 22.2641 40.6472 24.6879 39.2821 26.3127C37.6517 27.6765 35.2189 27.5758 33.7076 26.0678C33.7076 26.0678 27.9062 20.2682 27.8436 20.1957C27.2265 19.4812 25.942 17.9952 24.3795 18.4147C22.7822 18.8442 22.3885 20.9264 22.2592 21.61C21.3518 26.3979 22.8575 31.2992 26.2873 34.7213C30.4048 38.8295 36.6342 40.0947 42.0327 37.9956L46.2529 42.2063C45.7378 43.5371 45.4976 45.0018 45.5857 46.4727C45.7859 49.7741 44.0359 53.0121 39.7338 57.3004L35.2525 61.7716C33.7358 60.9936 31.8249 61.2363 30.5558 62.5025L24.2796 68.7647C23.519 69.5235 23.1003 70.5352 23.1003 71.6136C23.1003 72.6919 23.5192 73.7037 24.2794 74.4623L41.6109 91.755C42.3969 92.5392 43.4295 92.9313 44.4621 92.9313C45.4946 92.9313 46.5272 92.5392 47.3134 91.7549L53.5896 85.4926C54.3501 84.7339 54.7688 83.7221 54.7688 82.6438C54.7688 81.9918 54.6148 81.3646 54.3257 80.8026L61.9486 73.1965C64.2082 70.9422 64.5753 71.0033 66.9686 71.4027C67.3714 71.47 67.8279 71.5463 68.3416 71.6195C70.4307 71.9195 72.8565 70.8581 74.2329 70.1229L77.0147 72.8993C76.2803 74.7835 75.9394 76.8329 76.0256 78.8779C76.0533 79.5392 76.5981 80.0566 77.2539 80.0566C77.2712 80.0566 77.289 80.0563 77.3065 80.0555C77.9854 80.0269 78.5127 79.4535 78.4841 78.7745C78.4023 76.8252 78.7842 74.8737 79.5889 73.1311C79.8051 72.6625 79.7062 72.1088 79.3408 71.7443L59.6518 52.0947C60.4526 50.5858 60.9059 48.981 60.9557 47.4054C62.3729 48.6237 64.2369 49.6163 66.0592 50.1061C67.5515 50.5072 68.9478 50.5725 70.2017 50.313C70.2015 50.3269 70.2007 50.3407 70.2007 50.3547C70.2017 51.8729 70.7928 53.2969 71.8631 54.3618C72.8699 55.3689 74.1932 55.95 75.6143 56.0151C75.4681 56.4953 75.3923 57.0003 75.3923 57.5173C75.3923 58.8884 75.9245 60.1747 76.891 61.1388C77.8907 62.1363 79.2035 62.635 80.5168 62.6349C80.7168 62.6349 80.9166 62.6219 81.1156 62.5986L84.8148 66.2896C85.1786 66.6526 85.7297 66.7512 86.1968 66.537C90.8394 64.4083 96.3765 65.3897 99.9743 68.9795C102.827 71.8254 104.079 75.9042 103.323 79.8909C103.196 80.5588 103.053 80.9086 102.96 81.0795C102.784 80.9635 102.493 80.704 102.019 80.1546C101.913 80.0312 96.0305 74.1489 96.0305 74.1489C93.5892 71.7127 89.6392 71.5789 87.0381 73.8447C86.9962 73.8813 86.957 73.9204 86.9203 73.9622C84.6474 76.5596 84.7815 80.5042 87.2253 82.9425L94.1673 89.8513C93.9944 89.9439 93.6434 90.0863 92.9769 90.2118C88.9795 90.9656 84.8896 89.717 82.0384 86.8719C81.134 85.9655 80.3826 84.9347 79.8051 83.8079C79.495 83.2031 78.7538 82.9644 78.1488 83.2743C77.5441 83.5843 77.3052 84.3259 77.6153 84.9306C78.3094 86.2847 79.2114 87.5227 80.2983 88.6119C83.0697 91.3771 86.8089 92.8887 90.6729 92.8885C91.5895 92.8885 92.5133 92.8034 93.4325 92.63C94.1188 92.5009 96.2067 92.1079 96.6353 90.5103C97.0543 88.948 95.5643 87.6671 94.848 87.0515C94.7755 86.9892 88.9631 81.2006 88.9631 81.2006C87.454 79.6947 87.3526 77.2709 88.7177 75.6461C90.3481 74.2823 92.7809 74.3832 94.2922 75.891C94.2922 75.891 100.094 81.6906 100.156 81.7631C100.773 82.4778 102.059 83.9643 103.62 83.5441C105.217 83.1146 105.611 81.0324 105.74 80.3488C106.648 75.5614 105.142 70.6601 101.713 67.2378V67.2378ZM77.662 36.0044C78.8943 37.237 78.9136 39.2542 77.707 40.5057L73.7519 44.4521C73.0729 43.4682 69.3366 39.7625 69.3366 39.7625L73.1017 36.0056C74.3596 34.7505 76.4058 34.7509 77.662 36.0044ZM66.8021 29.7199C68.0598 28.465 70.1065 28.4653 71.3635 29.7199C71.9683 30.3231 72.3011 31.1299 72.3011 31.9917C72.3011 32.8535 71.9683 33.6604 71.3635 34.2636L67.5945 38.0243L63.0368 33.4768L66.8021 29.7199ZM43.1851 35.6692C42.8215 35.3063 42.2706 35.2077 41.8032 35.4218C37.16 37.5503 31.6233 36.5691 28.0257 32.9794C25.1732 30.1335 23.9214 26.0547 24.6772 22.0679C24.8037 21.4 24.9471 21.0503 25.0395 20.8793C25.2163 20.9953 25.5066 21.2548 25.9808 21.8043C26.0873 21.9276 31.9694 27.8099 31.9694 27.8099C34.4111 30.2463 38.3609 30.38 40.9619 28.1141C41.0037 28.0777 41.043 28.0383 41.0797 27.9966C43.3526 25.3993 43.2185 21.4547 40.7747 19.0163C40.7747 19.0163 33.9499 12.2842 33.8326 12.1075C34.0055 12.015 34.3566 11.8726 35.023 11.7471C39.02 10.9927 43.1102 12.2418 45.9635 15.0889C49.5598 18.6772 50.5433 24.1988 48.4109 28.829C48.1954 29.2973 48.2945 29.8501 48.6591 30.2143L52.8887 34.4383L48.3038 39.0129C48.0093 39.3069 47.7386 39.6258 47.4878 39.962L43.1851 35.6692ZM71.8644 46.3353C71.5458 46.6532 71.2709 47.0031 71.04 47.3769C68.419 49.0009 64.2748 47.212 62.2124 45.2254L61.9567 44.9706C60.0715 43.0919 59.0688 42.0916 58.9762 41.9968C58.9746 41.9951 58.9729 41.9938 58.9713 41.9922C58.9667 41.9876 58.9624 41.9827 58.9579 41.9781C58.9513 41.9715 58.9447 41.9667 58.9382 41.9608C58.4676 41.5103 57.722 41.5025 57.2433 41.9549C56.7495 42.4218 56.7278 43.2006 57.1947 43.6944C57.1992 43.699 57.2065 43.7067 57.2195 43.7199C58.0593 44.5579 58.5032 45.7317 58.5032 47.1144C58.5032 49.2894 57.3918 51.697 55.5299 53.5546C55.0489 54.0346 55.048 54.8136 55.5279 55.2946C55.7684 55.5354 56.0837 55.656 56.399 55.656C56.7135 55.656 57.028 55.5363 57.2682 55.2966C57.6247 54.9409 57.9551 54.5688 58.2644 54.1864L72.3996 68.2934C70.9667 68.9658 69.5797 69.3113 68.6902 69.1834C68.2041 69.114 67.7628 69.0403 67.3735 68.9754C64.5224 68.4996 63.2447 68.4269 60.2103 71.4544L52.7204 78.9277L46.5315 72.7528C46.0505 72.2727 45.2714 72.2736 44.7915 72.7547C44.3115 73.2358 44.3125 74.0149 44.7936 74.4947L51.8489 81.5343C51.8491 81.5344 51.8494 81.5348 51.8496 81.5351L51.8504 81.5359L51.8517 81.5372C52.146 81.8309 52.3081 82.224 52.3081 82.644C52.3081 83.0639 52.146 83.457 51.8515 83.7507L45.575 90.0131C44.9611 90.6255 43.9625 90.6253 43.3489 90.0131L26.0176 72.7205C25.7233 72.4266 25.5612 72.0335 25.5612 71.6137C25.5612 71.1939 25.7233 70.8007 26.0178 70.507L32.2939 64.2446C32.9078 63.6323 33.9065 63.6325 34.52 64.2446L40.7262 70.4369C41.2073 70.9168 41.9863 70.9162 42.4663 70.435C42.9463 69.954 42.9454 69.1748 42.4643 68.695L37.131 63.3736L41.4715 59.0427C46.324 54.2056 48.289 50.4019 48.042 46.3248C47.9174 44.2442 48.6838 42.1098 50.0415 40.7547L57.6191 33.1941C58.0664 32.7475 58.82 32.7457 59.2646 33.1894L60.4234 34.3455L68.4425 42.3469C68.6589 42.5628 68.8748 42.7764 69.0877 42.987C70.1069 43.9952 71.576 45.4487 71.9755 46.2237L71.8644 46.3353ZM75.8835 53.561C75.0186 53.561 74.209 53.2277 73.6014 52.6198C72.9961 52.0174 72.6622 51.2124 72.6616 50.3532C72.6611 49.4917 72.9953 48.6834 73.6024 48.0774L78.2221 43.4682C78.8508 42.8408 79.6768 42.5272 80.5027 42.5272C81.3287 42.5272 82.1547 42.8408 82.7834 43.4682C82.7839 43.4685 82.7842 43.469 82.7847 43.4694C83.3906 44.0724 83.7244 44.8788 83.7244 45.7401C83.7244 46.6007 83.3911 47.4067 82.7846 48.011C82.7841 48.0114 82.7836 48.0118 82.7832 48.0123L78.1629 52.6223C77.5579 53.2276 76.7482 53.561 75.8835 53.561ZM78.6293 59.3972C78.1288 58.898 77.8533 58.2304 77.8533 57.5176C77.8533 56.8048 78.1289 56.1372 78.6296 55.6377L84.5219 49.7539C85.043 49.234 85.7274 48.9741 86.4119 48.9741C87.0963 48.9741 87.7808 49.234 88.3018 49.7539H88.302C88.8023 50.2531 89.0778 50.9207 89.0778 51.6335C89.0778 52.3463 88.8022 53.0139 88.3018 53.5131L82.4049 59.3972C81.3637 60.4357 79.6698 60.4355 78.6293 59.3972V59.3972Z" fill="black"/>
</g>
<defs>
<clipPath id="clip0">
<rect width="84" height="84" fill="white" transform="translate(22 9)"/>
</clipPath>
</defs>
</svg>
