<svg width="129" height="102" viewBox="0 0 129 102" fill="none" xmlns="http://www.w3.org/2000/svg">
<rect width="129" height="102" rx="24" fill="#FAC5C5"/>
<g clip-path="url(#clip0)">
<path d="M80.3436 58.3457C79.4887 58.1813 77.1695 57.7348 76.1113 57.5312C74.8344 57.2855 73.9076 56.1635 73.9076 54.8632V53.2734C74.8322 52.7068 75.7236 52.0484 76.5793 51.2964C79.6155 48.6275 81.491 44.8425 81.8698 40.6272C84.0875 40.5509 85.8637 38.7029 85.8543 36.4503L85.8411 33.252C85.8369 32.2607 85.4804 31.3115 84.8482 30.5667V26.6468C84.8482 25.9424 84.2771 25.3713 83.5726 25.3713C82.8682 25.3713 82.2971 25.9424 82.2971 26.6468V29.3788C70.6752 26.1115 59.3235 26.1113 47.7029 29.3788V22.7646C47.7029 18.4822 50.6037 14.7627 54.7571 13.7193L61.8387 11.9405C63.9069 11.4211 66.0932 11.4211 68.1612 11.9405L75.2427 13.7193C78.7148 14.5914 81.4124 17.421 82.1152 20.928C82.2536 21.6187 82.926 22.0663 83.6165 21.9281C84.3072 21.7897 84.755 21.1175 84.6166 20.4268C83.7213 15.9596 80.2858 12.3557 75.8642 11.2451L68.7827 9.4663C66.308 8.84465 63.6919 8.84465 61.217 9.4663L54.1355 11.2451C48.846 12.5737 45.1516 17.3108 45.1516 22.7646V30.5669C44.5194 31.3116 44.163 32.2608 44.1588 33.2522L44.1455 36.4505C44.1361 38.7029 45.9124 40.5509 48.1301 40.6274C48.5088 44.8429 50.3844 48.6277 53.4206 51.2966C54.276 52.0486 55.1676 52.7068 56.0923 53.2736V54.8634C56.0923 56.0514 55.3628 57.1578 53.9003 57.528L49.6564 58.346C37.946 60.5997 29.4978 70.8933 29.4978 82.7541V87.9452C29.4978 91.8353 32.6627 95.0004 36.553 95.0004H93.447C97.3372 95.0004 100.502 91.8355 100.502 87.9452V82.7541C100.502 70.8468 92.0092 60.5908 80.3436 58.3457ZM80.7756 61.0473C82.1525 61.3723 83.4751 61.8233 84.7331 62.3854V76.7364C83.895 76.1687 82.8848 75.8366 81.7986 75.8366H80.7758V61.0473H80.7756ZM81.0849 31.6877C79.768 32.9846 78.2331 35.0219 75.1205 34.4842C71.7152 33.897 68.358 33.6034 65 33.6034C61.6428 33.6034 58.285 33.897 54.8804 34.4841C51.7906 35.0174 50.2418 32.9959 48.9099 31.6891C59.7125 28.7449 70.2809 28.7444 81.0849 31.6877ZM55.1051 49.3802C52.5372 47.123 50.9593 43.8949 50.6619 40.2901C50.5582 39.0347 49.5282 38.0838 48.2661 38.0784C47.3971 38.0747 46.6931 37.3491 46.6968 36.4609L46.7101 33.2626C46.7102 33.2139 46.7139 33.1657 46.7185 33.1176C48.6731 35.009 50.8659 37.7653 55.3138 36.9982C61.832 35.8742 68.1689 35.8742 74.6868 36.9984C79.2978 37.7934 81.6447 34.6945 83.2812 33.1109C83.2861 33.1611 83.2898 33.2117 83.29 33.2626L83.3032 36.4609C83.3069 37.3491 82.603 38.0746 81.7341 38.0784C80.4719 38.0838 79.442 39.0347 79.3383 40.2902C79.0409 43.8949 77.463 47.1232 74.8951 49.3804C69.0205 54.5439 61.039 54.5963 55.1051 49.3802ZM73.8108 59.3146L71.6553 61.0463C67.9919 63.9895 62.6891 63.9705 59.0469 61.0008L56.616 59.0189C58.8854 57.2593 58.6243 54.6511 58.6436 54.5642C62.7984 56.2558 67.1515 56.2762 71.3564 54.5642C71.3712 54.6223 71.1043 57.5993 73.8108 59.3146ZM52.1022 60.473L53.9307 60.1211L57.4347 62.9781C62.0063 66.7055 68.6055 66.7692 73.253 63.0351L76.7234 60.2471L78.2244 60.536V75.8368H52.1022V60.473ZM41.8853 83.7219C41.1075 84.6607 40.6791 85.8493 40.6791 87.0685V92.4489H36.553C34.0696 92.4489 32.0491 90.4284 32.0491 87.945V83.672H41.9267L41.8853 83.7219ZM43.0425 81.1208H32.1097C32.6518 73.7187 36.8471 67.1893 43.0423 63.5339V67.2227C43.0423 67.9272 43.6134 68.4982 44.3179 68.4982C45.0223 68.4982 45.5934 67.9272 45.5934 67.2227V62.2426C46.8532 61.7039 48.1759 61.2763 49.5509 60.9732V75.8368H48.513C47.4332 75.8368 46.4285 76.165 45.5934 76.7267V73.1859C45.5934 72.4815 45.0223 71.9104 44.3179 71.9104C43.6134 71.9104 43.0423 72.4815 43.0423 73.1859V81.1208H43.0425ZM86.7699 92.4489H43.2301V87.0685C43.2301 85.6919 44.1737 85.0679 44.6125 84.4289C45.3967 83.4822 45.8187 82.2828 45.8187 81.0823C45.8187 79.5966 47.0274 78.3879 48.513 78.3879H81.7982C83.2839 78.3879 84.4926 79.5966 84.4926 81.0823C84.5069 81.178 84.3576 82.7435 85.4989 84.3097C85.978 85.0813 86.7696 85.6687 86.7696 86.9308V92.4489H86.7699ZM87.2843 81.1208V63.7305C93.3001 67.4204 97.3578 73.8496 97.8903 81.1208H87.2843ZM97.9509 87.9448C97.9509 90.4282 95.9305 92.4487 93.447 92.4487H89.321V86.9308C89.321 85.8131 88.973 84.7449 88.3147 83.8413L88.1913 83.672H97.9509V87.9448Z" fill="black"/>
<path d="M60.2645 15.9637C58.6086 15.9637 57.2615 17.3108 57.2615 18.9666V21.1811C57.2615 22.837 58.6086 24.1841 60.2645 24.1841H69.7356C71.3914 24.1841 72.7385 22.837 72.7385 21.1811V18.9666C72.7385 17.3108 71.3914 15.9637 69.7356 15.9637H60.2645ZM70.1874 18.9666V21.1811C70.1874 21.4302 69.9848 21.633 69.7356 21.633H60.2645C60.0154 21.633 59.8126 21.4304 59.8126 21.1811V18.9666C59.8126 18.7175 60.0152 18.5148 60.2645 18.5148H69.7356C69.9847 18.5148 70.1874 18.7175 70.1874 18.9666Z" fill="black"/>
</g>
<defs>
<clipPath id="clip0">
<rect width="86" height="86" fill="white" transform="translate(22 9)"/>
</clipPath>
</defs>
</svg>
