<svg width="129" height="102" viewBox="0 0 129 102" fill="none" xmlns="http://www.w3.org/2000/svg">
<rect width="129" height="102" rx="24" fill="#FAEBC5"/>
<path d="M110 45.6973C110 43.7331 108.657 42.1408 107 42.1408V20.8024C107 18.8382 105.657 17.2459 104 17.2459H87.5C87.4791 17.2459 87.4626 17.2584 87.443 17.2601C87.2724 17.2626 87.1033 17.3005 86.9435 17.3722L86.9164 17.3847L80.3884 20.4823C79.2453 21.017 78.4958 22.3277 78.5 23.7843V24.3586H70.9999C70.1715 24.3586 69.5 25.1547 69.5 26.1368C69.5 27.1189 70.1715 27.9149 70.9999 27.9149H78.5V28.4892C78.496 29.9454 79.2448 31.2557 80.387 31.7913L86.0001 34.4532V42.1404H71.0001C71.0001 41.1583 70.3286 40.3623 69.5002 40.3623H66.5001V29.6931C66.5001 28.7109 65.8286 27.9149 65.0002 27.9149H56.0002C55.1717 27.9149 54.5002 28.7109 54.5002 29.6931V40.3623H51.5C50.6715 40.3623 50.0001 41.1583 50.0001 42.1404H39.5001V36.8058H42.5C43.3285 36.8058 43.9999 36.0098 43.9999 35.0277H47C48.6569 35.0277 50.0001 33.4354 50.0001 31.4712V20.802C50.0001 18.8377 48.6569 17.2455 47 17.2455H43.9999C43.9999 16.2634 43.3285 15.4673 42.5 15.4673H23.0001C21.3431 15.468 20 17.0602 20 19.0242V54.5884C20 54.6311 20.0179 54.6684 20.0209 54.7112C20.0239 54.7539 20.009 54.7841 20.0134 54.8233L22.8408 79.9512C23.0386 81.7187 24.3098 83.0394 25.8138 83.0398H36.4999C38.1568 83.0398 39.4999 81.4476 39.4999 79.4834H85.9999C85.9999 81.4476 87.343 83.0398 88.9999 83.0398H104.186C105.689 83.0394 106.96 81.7197 107.159 79.9528L109.986 54.8233C109.986 54.7841 109.977 54.7487 109.979 54.7112C109.98 54.6736 110 54.6311 110 54.5884V45.6973ZM43.9999 20.8026H47V31.4718H43.9999V20.8026ZM88.9999 33.25V20.8026H104V42.141H88.9999V33.25ZM81.5001 28.488V23.7864L86.0001 21.6526V30.6218L81.5001 28.488ZM57.4999 31.4718H63.4999V40.3629H57.4999V31.4718ZM52.9999 43.9192H56H68.0001V54.5884H53.0001V43.9192H52.9999ZM50.0001 45.6973V52.8101H39.5001V45.6973H50.0001ZM36.5001 79.4834H25.814L23.2145 56.3666H36.5001V79.4834ZM27.5001 33.25C26.6716 33.25 26.0001 34.046 26.0001 35.0281C26.0001 36.0102 26.6716 36.8062 27.5001 36.8062H36.5001V52.8101H23.0001V19.0242H41.0001V33.25H27.5001ZM86.0001 75.9269H39.4999V65.2576H85.9999V75.9269H86.0001ZM86.0001 61.7012H39.4999V56.3666H49.9999C49.9999 57.3487 50.6714 58.1447 51.4998 58.1447H69.4998C70.3283 58.1447 70.9998 57.3485 70.9998 56.3666H85.9997V61.7012H86.0001ZM104.187 79.4834H88.9999V56.3666H106.785L104.187 79.4834ZM107 52.8103H70.9999V45.6975H87.5H107V52.8103Z" fill="black"/>
<path d="M52.9999 72.3704H81.4999C82.3283 72.3704 82.9998 71.5744 82.9998 70.5923C82.9998 69.6102 82.3283 68.8141 81.4999 68.8141H52.9999C52.1715 68.8141 51.5 69.6104 51.5 70.5923C51.5 71.5742 52.1717 72.3704 52.9999 72.3704Z" fill="black"/>
<path d="M43.9999 72.3704H47C47.8285 72.3704 48.4999 71.5744 48.4999 70.5923C48.4999 69.6102 47.8283 68.8141 47 68.8141H43.9999C43.1715 68.8141 42.5 69.6104 42.5 70.5923C42.5 71.5742 43.1715 72.3704 43.9999 72.3704Z" fill="black"/>
<path d="M63.5001 47.4757H57.5001C56.6717 47.4757 56.0002 48.2717 56.0002 49.2539C56.0002 50.236 56.6718 51.032 57.5001 51.032H63.5001C64.3285 51.032 65 50.236 65 49.2539C65 48.2717 64.3285 47.4757 63.5001 47.4757Z" fill="black"/>
</svg>
